# xmcd
#
# Track frame offsets:
# 150
# 15791
# 29157
# 41146
# 53983
# 70135
# 84224
# 99781
# 111978
# 121293
# 136879
# 152053
# 165621
# 178272
# 189407
# 204145
# 217251
# 227857
# 240988
# 253616
#
# Disc length: 3530 seconds
#
#
# Revision: 0
# Processed by: cddbd v1.5.2PL0 Copyright (c) Steve Scherf et al.
# Submitted via: FreeRIP 2.945 
#
DISCID=0b0dc814
DTITLE=Manhoso - As 20 mais de Manhoso
DYEAR=1900
DGENRE=Forro
TTITLE0=O modo de usar (Só capim canela)
TTITLE1=A Turma do Puxa-saco
TTITLE2=Troféu de cozinheira
TTITLE3=Velha profecia
TTITLE4=Vida de pobre
TTITLE5=Eva e Adão
TTITLE6=A força da mandioca
TTITLE7=Tô zerinho, zerinho
TTITLE8=O sutião
TTITLE9=O tocador de saxofone
TTITLE10=Um grande amor
TTITLE11=O Tico-tico
TTITLE12=a tristeza do jacu
TTITLE13=A vizinha fuxiqueira
TTITLE14=O convite
TTITLE15=Bem feito
TTITLE16=No tempo de Adão (Peladão)
TTITLE17=Não quero saber
TTITLE18=Melô da sogra
TTITLE19=Meu vestuário
EXTD=
EXTT0=
EXTT1=
EXTT2=
EXTT3=
EXTT4=
EXTT5=
EXTT6=
EXTT7=
EXTT8=
EXTT9=
EXTT10=
EXTT11=
EXTT12=
EXTT13=
EXTT14=
EXTT15=
EXTT16=
EXTT17=
EXTT18=
EXTT19=
PLAYORDER=
